<svg width="19" height="18" viewBox="0 0 19 18" fill="none" xmlns="http://www.w3.org/2000/svg">
<path d="M16.1068 12.4623C16.1068 13.9447 16.1082 15.4279 16.1061 16.9104C16.1053 17.5134 15.9032 17.717 15.3023 17.7205C14.5607 17.7241 13.8198 17.7248 13.0782 17.7198C12.5218 17.7163 12.3076 17.5021 12.3069 16.95C12.3048 14.7966 12.2985 12.6426 12.3175 10.4892C12.3197 10.2686 12.4328 9.99788 12.5855 9.8374C13.356 9.02795 14.1584 8.24819 14.9474 7.45712C15.1602 7.24362 15.3949 7.10577 15.7038 7.22807C16.0276 7.35673 16.1068 7.62679 16.1068 7.94279C16.1061 9.44999 16.1068 10.9565 16.1068 12.4623Z" fill="white"/>
<path d="M5.86869 12.458C5.86869 13.9525 5.87011 15.447 5.86799 16.9415C5.86728 17.5063 5.66651 17.7163 5.11156 17.7205C4.34664 17.7262 3.58173 17.7269 2.81682 17.7198C2.30004 17.7156 2.08018 17.5035 2.07877 16.9903C2.07311 14.8136 2.06958 12.6362 2.08796 10.4595C2.09008 10.2503 2.2039 9.99434 2.35094 9.84093C3.12363 9.0336 3.9246 8.25314 4.71284 7.46065C4.93623 7.23585 5.18296 7.09658 5.50108 7.24009C5.79941 7.37441 5.87081 7.63315 5.87011 7.93925C5.86586 9.44575 5.86869 10.9515 5.86869 12.458Z" fill="white"/>
<path d="M6.4959 2.66898C6.41461 2.79199 6.35946 2.91641 6.26898 3.0069C4.60624 4.67599 2.93927 6.34085 1.273 8.00641C1.18958 8.08983 1.1097 8.17749 1.0185 8.25101C0.749158 8.46875 0.418308 8.45744 0.185723 8.23051C-0.0468612 8.00358 -0.0631209 7.66919 0.148962 7.39914C0.199862 7.33481 0.260659 7.27755 0.318629 7.21958C2.19203 5.34547 4.06614 3.47065 5.94095 1.59725C6.37643 1.16178 6.62457 1.14976 7.09186 1.54423C8.63017 2.8443 10.1671 4.14579 11.6665 5.41475C13.0281 4.05813 14.3804 2.71069 15.7413 1.35477C15.402 1.3781 15.0436 1.41769 14.6851 1.42335C14.3366 1.429 14.0857 1.19783 14.0545 0.881826C14.0199 0.533303 14.215 0.281631 14.5805 0.205988C14.6265 0.19609 14.6731 0.187607 14.7198 0.184072C15.6127 0.121861 16.5048 0.0518739 17.3984 0.00168085C17.8501 -0.0237691 18.1188 0.241335 18.0891 0.691658C18.029 1.59655 17.9526 2.50002 17.8685 3.40279C17.831 3.80787 17.5419 4.04964 17.1877 4.01076C16.83 3.97188 16.6094 3.67991 16.6377 3.27837C16.6582 2.98498 16.683 2.6916 16.7035 2.39751C16.7049 2.37772 16.6879 2.35651 16.6653 2.3042C16.5755 2.38832 16.4921 2.46255 16.4136 2.54102C15.081 3.87432 13.7499 5.20832 12.4173 6.54162C11.904 7.05557 11.7004 7.06122 11.137 6.58404C9.69907 5.36526 8.26114 4.1472 6.82322 2.92914C6.75182 2.86905 6.67688 2.81249 6.4959 2.66898Z" fill="white"/>
<path d="M7.20013 12.4474C7.20013 10.9629 7.20366 9.47827 7.1973 7.9944C7.19588 7.66779 7.23971 7.37653 7.57975 7.23372C7.92192 7.09021 8.16086 7.27048 8.38921 7.50024C9.1527 8.2694 9.9162 9.03926 10.6903 9.79781C10.9003 10.0035 10.9858 10.2298 10.9851 10.5196C10.9794 12.6638 10.9837 14.8079 10.9809 16.9521C10.9802 17.5169 10.7787 17.717 10.2131 17.7205C9.45881 17.7255 8.70521 17.7255 7.9509 17.7205C7.40726 17.7163 7.20225 17.5106 7.20154 16.9719C7.19871 15.4633 7.20013 13.9553 7.20013 12.4474Z" fill="white"/>
</svg>
