<svg width="19" height="20" viewBox="0 0 19 20" fill="none" xmlns="http://www.w3.org/2000/svg">
<path d="M9.51033 19.5941C8.98769 19.5941 8.46506 19.5987 7.94166 19.5933C7.09229 19.5841 6.50308 19.0707 6.36305 18.2267C6.31331 17.9252 6.2651 17.6229 6.21001 17.3222C6.06768 16.5394 5.3966 16.143 4.64134 16.4001C4.32837 16.5065 4.02382 16.6396 3.71162 16.7483C2.93647 17.0176 2.22254 16.7651 1.80397 16.0573C1.27292 15.1582 0.751051 14.253 0.2376 13.3439C-0.17867 12.6062 -0.038638 11.8716 0.607193 11.3207C0.858945 11.1057 1.12524 10.9067 1.3724 10.6863C1.93941 10.1805 1.94094 9.41994 1.37469 8.9149C1.11835 8.68611 0.84058 8.48103 0.580411 8.2553C-0.0302208 7.72578 -0.173314 6.99348 0.219235 6.29255C0.742634 5.35824 1.27751 4.43082 1.82463 3.51181C2.2256 2.83766 2.93264 2.58897 3.6726 2.83843C3.99781 2.94862 4.31384 3.08635 4.63905 3.19654C5.39507 3.45365 6.06692 3.05957 6.21001 2.2783C6.2674 1.96533 6.31331 1.65007 6.3684 1.33634C6.51073 0.521394 7.10759 0.0102388 7.93937 0.00488238C8.98463 -0.00123924 10.0307 -0.00200445 11.0759 0.00488238C11.8863 0.0102388 12.4801 0.517568 12.6262 1.31414C12.6836 1.62711 12.7288 1.94238 12.7854 2.25611C12.9308 3.06493 13.5988 3.45977 14.3747 3.19042C14.6754 3.08635 14.9685 2.96086 15.2685 2.8545C16.0582 2.57443 16.7767 2.82925 17.2044 3.55542C17.7278 4.44459 18.2436 5.33835 18.7517 6.23593C19.1794 6.99271 19.0402 7.72501 18.376 8.2882C18.1235 8.50246 17.8572 8.70141 17.6115 8.92332C17.0613 9.41917 17.0598 10.1721 17.61 10.668C17.8748 10.9067 18.164 11.1187 18.4326 11.3536C19.0256 11.8732 19.1702 12.6009 18.7884 13.2865C18.2612 14.2323 17.7194 15.1697 17.1647 16.0994C16.7729 16.7552 16.0681 17.0008 15.3458 16.7613C15.0198 16.6534 14.703 16.5172 14.3785 16.4047C13.6026 16.1354 12.9316 16.5287 12.7869 17.3352C12.7303 17.6489 12.6859 17.9642 12.6285 18.2772C12.4824 19.0737 11.8893 19.5795 11.0805 19.5903C10.5556 19.5994 10.033 19.5941 9.51033 19.5941ZM1.53462 7.06771C2.47888 7.76787 3.32902 8.49787 3.32825 9.8033C3.32672 11.108 2.46817 11.8326 1.53615 12.5313C2.08633 13.4832 2.61815 14.4029 3.15991 15.3403C4.24803 14.8414 5.29712 14.4963 6.41202 15.1383C7.5384 15.7872 7.75725 16.8891 7.87738 18.0468C8.96856 18.0468 10.023 18.0468 11.1203 18.0468C11.242 16.896 11.4585 15.7941 12.5803 15.1421C13.7044 14.4894 14.7657 14.8513 15.8439 15.3342C16.3926 14.3846 16.9236 13.464 17.4577 12.5389C17.1815 12.3101 16.9343 12.1104 16.6925 11.9038C15.3175 10.7307 15.3205 8.85828 16.6994 7.68675C16.9481 7.47479 17.2006 7.26666 17.457 7.0524C16.9114 6.10967 16.3841 5.19908 15.8516 4.27854C15.5088 4.40556 15.2019 4.52341 14.892 4.63359C13.217 5.23045 11.5458 4.23798 11.2634 2.48261C11.2137 2.17194 11.157 1.86279 11.1042 1.55365C10.0161 1.55365 8.96168 1.55365 7.87662 1.55365C7.75801 2.71753 7.53228 3.81483 6.40437 4.46372C5.27876 5.11108 4.21818 4.73154 3.15379 4.26783C2.60896 5.20826 2.08786 6.11044 1.53462 7.06771Z" fill="white"/>
<path d="M9.51341 13.5673C7.42441 13.575 5.74249 11.9091 5.73102 9.82244C5.71954 7.7166 7.39992 6.02856 9.50423 6.03086C11.594 6.03315 13.2644 7.70435 13.2667 9.79412C13.269 11.8839 11.6017 13.5597 9.51341 13.5673ZM11.7348 9.79259C11.7317 8.55067 10.7446 7.56509 9.5027 7.56356C8.26001 7.56203 7.26984 8.54531 7.26372 9.78571C7.25836 11.0445 8.25542 12.0408 9.51494 12.0339C10.7546 12.0278 11.7371 11.0353 11.7348 9.79259Z" fill="white"/>
</svg>
