<svg width="18" height="18" viewBox="0 0 18 18" fill="none" xmlns="http://www.w3.org/2000/svg">
<path d="M12.6114 1.95085C12.6114 1.60964 12.6019 1.35103 12.6134 1.0931C12.6317 0.692316 12.8991 0.425581 13.2728 0.418134C13.66 0.41001 13.9539 0.682838 13.9613 1.09783C13.9742 1.81951 13.9633 2.54186 13.9667 3.26421C13.9681 3.56209 13.8516 3.79092 13.5842 3.92767C13.3114 4.06713 13.0602 4.00214 12.8267 3.82409C12.0373 3.22224 11.2479 2.62039 10.4579 2.01922C9.30358 1.14184 8.05927 1.14184 6.91244 2.01652C5.45081 3.1322 3.99054 4.24924 2.52552 5.36019C1.7524 5.94646 1.36651 6.7162 1.36854 7.68769C1.3726 9.52708 1.36719 11.3658 1.37057 13.2052C1.37328 14.807 2.54854 15.9849 4.14828 15.987C7.17241 15.9897 10.1972 15.9897 13.2213 15.987C14.819 15.9856 15.993 14.8063 15.9957 13.2018C15.999 11.3516 15.9963 9.50068 15.9963 7.65046C15.9963 6.77713 15.6768 6.04937 15.01 5.47731C14.6363 5.15641 14.5747 4.75698 14.8414 4.44557C15.1122 4.13009 15.5055 4.124 15.8873 4.4476C16.8067 5.22614 17.3199 6.22741 17.3395 7.42502C17.3733 9.43298 17.374 11.4416 17.3415 13.4496C17.3084 15.5293 15.5245 17.3152 13.4448 17.3342C10.2737 17.3626 7.10268 17.3612 3.93164 17.3348C1.83702 17.3179 0.048405 15.5219 0.0206483 13.4279C-0.00575444 11.4315 -0.00913941 9.43366 0.0240333 7.43652C0.0456971 6.20981 0.570367 5.17875 1.53779 4.42187C3.11857 3.18433 4.71289 1.96236 6.32752 0.77017C7.74041 -0.273077 9.64343 -0.245997 11.0719 0.787772C11.5715 1.14861 12.0569 1.53043 12.6114 1.95085Z" fill="white"/>
<path d="M7.34084 9.51015C6.84528 9.51624 6.48376 9.15676 6.48783 8.66255C6.49121 8.19949 6.86694 7.83053 7.33271 7.83324C7.79916 7.83594 8.17016 8.20829 8.1688 8.67203C8.16745 9.15202 7.81947 9.50406 7.34084 9.51015Z" fill="white"/>
<path d="M9.19776 8.67881C9.19573 8.20153 9.54709 7.84543 10.025 7.83934C10.5179 7.83325 10.8842 8.19882 10.8767 8.68897C10.8693 9.16692 10.5138 9.51287 10.0325 9.51016C9.55183 9.50745 9.19979 9.15677 9.19776 8.67881Z" fill="white"/>
<path d="M7.32196 10.5473C7.80195 10.5439 8.16008 10.8912 8.16821 11.3678C8.17633 11.8465 7.82971 12.2073 7.35243 12.2181C6.85687 12.229 6.48791 11.8722 6.48926 11.3814C6.48994 10.9048 6.84333 10.5507 7.32196 10.5473Z" fill="white"/>
<path d="M10.8771 11.3759C10.8811 11.8539 10.5325 12.2113 10.0538 12.2188C9.57115 12.2262 9.21166 11.8857 9.19812 11.4084C9.18458 10.9176 9.5461 10.5473 10.0383 10.548C10.5176 10.548 10.873 10.8987 10.8771 11.3759Z" fill="white"/>
</svg>
