<svg width="17" height="21" viewBox="0 0 17 21" fill="none" xmlns="http://www.w3.org/2000/svg">
<path d="M13.8785 17.556C13.8785 17.9689 13.8856 18.3325 13.877 18.6953C13.8597 19.4828 13.2994 20.058 12.5104 20.0595C8.80165 20.0666 5.09293 20.0666 1.38421 20.0603C0.57868 20.0588 0.00430973 19.4766 0.00352615 18.6663C-0.00117538 13.743 -0.00117538 8.81976 0.00352615 3.89648C0.00430973 3.09017 0.584165 2.5252 1.39361 2.5111C1.82302 2.50326 2.25242 2.50953 2.7359 2.50953C2.7359 2.3199 2.73433 2.15535 2.7359 1.99158C2.74687 0.828732 3.56258 0.0106664 4.74737 0.00518128C6.60134 -0.00422178 8.45609 0.00204692 10.3101 0.00204692C11.7072 0.00204692 13.1043 -0.00108743 14.5023 0.00283051C15.8265 0.00674845 16.6148 0.801307 16.6148 2.1287C16.6156 6.55598 16.6156 10.9825 16.6148 15.4097C16.6148 16.7638 15.8328 17.5505 14.4827 17.556C14.3009 17.5568 14.1199 17.556 13.8785 17.556ZM12.5872 18.8082C12.5872 13.7673 12.5872 8.77745 12.5872 3.76484C12.4336 3.76484 12.3168 3.76484 12.2009 3.76484C8.70135 3.76484 5.20107 3.77032 1.70156 3.75622C1.33484 3.75465 1.24865 3.86043 1.24943 4.2154C1.26118 8.92947 1.26118 13.6443 1.24943 18.3584C1.24865 18.7141 1.33563 18.8183 1.70156 18.8168C5.20107 18.8027 8.70135 18.8082 12.2009 18.8082C12.3168 18.8082 12.4336 18.8082 12.5872 18.8082ZM13.8801 16.3007C14.0752 16.3007 14.217 16.3007 14.3589 16.3007C15.1644 16.3007 15.3603 16.1095 15.3603 15.322C15.3603 10.9597 15.3603 6.59829 15.3603 2.23606C15.3603 1.44777 15.166 1.25735 14.3589 1.25735C11.2378 1.25735 8.11601 1.25735 4.99498 1.25735C4.10796 1.25735 3.84389 1.60057 4.05311 2.50953C4.18945 2.50953 4.33128 2.50953 4.47311 2.50953C7.07227 2.50953 9.67065 2.50953 12.2698 2.50953C13.3723 2.50953 13.8801 3.01259 13.8801 4.1057C13.8809 7.99778 13.8801 11.8891 13.8801 15.7812C13.8801 15.9355 13.8801 16.0899 13.8801 16.3007Z" fill="white"/>
<path d="M7.056 8.46636C6.11726 8.46636 5.17852 8.46793 4.24057 8.46558C3.74534 8.4648 3.45933 8.23755 3.45228 7.8489C3.44522 7.45475 3.73123 7.21184 4.21863 7.21184C6.10864 7.20949 7.99944 7.20949 9.88945 7.21184C10.3761 7.21262 10.6636 7.45475 10.6589 7.84654C10.6535 8.23599 10.3674 8.46401 9.873 8.46558C8.93269 8.46793 7.99474 8.46636 7.056 8.46636Z" fill="white"/>
<path d="M7.06695 10.9738C6.11567 10.9738 5.16361 10.9762 4.21233 10.9731C3.73278 10.9715 3.4405 10.72 3.45147 10.329C3.46244 9.9497 3.73905 9.7201 4.20685 9.7201C6.11018 9.71775 8.01352 9.71775 9.91685 9.7201C10.376 9.72089 10.6558 9.9638 10.6581 10.3438C10.6605 10.7239 10.3792 10.9707 9.92234 10.9731C8.97028 10.9762 8.01822 10.9738 7.06695 10.9738Z" fill="white"/>
<path d="M7.09401 12.226C8.03275 12.226 8.97149 12.2237 9.90944 12.2268C10.3702 12.2284 10.6507 12.4666 10.6562 12.8443C10.6617 13.2259 10.3812 13.4782 9.92668 13.479C8.01002 13.4821 6.09415 13.4821 4.17749 13.479C3.72536 13.4782 3.44327 13.222 3.45032 12.8411C3.45738 12.4611 3.73477 12.2276 4.19943 12.226C5.16482 12.2237 6.12941 12.226 7.09401 12.226Z" fill="white"/>
</svg>
