<svg width="19" height="19" viewBox="0 0 19 19" fill="none" xmlns="http://www.w3.org/2000/svg">
<path d="M9.39768 18.7806C8.69122 18.7806 7.98401 18.7813 7.27755 18.7806C6.76115 18.7798 6.71647 18.7382 6.74903 18.2074C6.80431 17.301 6.86034 16.3939 6.93682 15.4891C6.96862 15.112 6.83838 14.8659 6.5037 14.6933C5.39442 14.1216 4.2912 13.5385 3.1857 12.9601C2.85935 12.7897 2.69656 12.5186 2.75183 12.1544C2.80484 11.8053 3.03729 11.5835 3.37803 11.5358C3.55294 11.5108 3.75284 11.5653 3.92396 11.6289C4.86742 11.9818 5.78892 12.4043 6.74979 12.7003C8.85023 13.3462 10.9325 13.2077 12.9716 12.3944C13.6266 12.1332 14.2778 11.8614 14.9335 11.6009C15.4166 11.4093 15.8444 11.554 16.0231 11.9583C16.1995 12.3573 16.0397 12.7458 15.5839 12.9866C14.514 13.5514 13.4464 14.1216 12.3666 14.6668C11.9858 14.8591 11.8389 15.1143 11.8767 15.5398C11.9585 16.4567 12.0085 17.3767 12.063 18.296C12.0872 18.7109 12.016 18.779 11.5935 18.7806C10.8613 18.7821 10.1291 18.7798 9.39768 18.7806Z" fill="white"/>
<path d="M18.7934 7.88461C18.7903 9.55346 17.4274 10.905 15.7533 10.8997C14.0837 10.8937 12.7306 9.52998 12.7359 7.85962C12.7419 6.19154 14.1056 4.83844 15.7782 4.84298C17.4456 4.84677 18.7964 6.20895 18.7934 7.88461ZM16.0872 7.54766C16.0872 7.32126 16.0872 7.12591 16.0872 6.87301C16.203 6.96236 16.2704 7.05019 16.3537 7.07139C16.5021 7.10925 16.6604 7.10698 16.8141 7.12212C16.8103 6.97371 16.8595 6.78972 16.7898 6.68674C16.6914 6.54136 16.5165 6.42929 16.3507 6.35206C16.1894 6.27634 16.0364 6.25438 16.0425 6.01057C16.0448 5.92804 15.8676 5.7766 15.7699 5.77433C15.6722 5.77205 15.5534 5.9038 15.4776 6.00224C15.433 6.06054 15.4526 6.16958 15.4443 6.2506C14.8106 6.43232 14.5357 6.72005 14.5243 7.2039C14.5122 7.6991 14.7681 7.98305 15.4405 8.22232C15.4405 8.41919 15.4405 8.61454 15.4405 8.8682C15.3247 8.7781 15.2581 8.69026 15.1748 8.6683C15.0264 8.63044 14.8681 8.63271 14.7136 8.61833C14.7174 8.76674 14.6674 8.95073 14.7379 9.05371C14.8363 9.19909 15.012 9.3104 15.1763 9.38839C15.3368 9.46411 15.4928 9.4838 15.4845 9.72913C15.4822 9.8109 15.6586 9.96385 15.7563 9.96612C15.854 9.9684 15.9728 9.8374 16.0486 9.73897C16.094 9.68066 16.0735 9.57163 16.0819 9.49061C16.7247 9.30434 17.0094 8.99465 17.0026 8.49945C16.9966 8.00652 16.705 7.70061 16.0872 7.54766Z" fill="white"/>
<path d="M5.44205 6.14307C5.16719 6.47018 5.47461 6.75791 5.56168 7.06684C5.58894 7.16376 5.67223 7.26447 5.7578 7.32201C6.19545 7.61505 6.20454 8.14508 5.76688 8.41842C5.5632 8.54563 5.3103 9.20287 5.37239 9.44366C5.48294 9.87223 5.04679 10.3159 4.62353 10.2054C4.33882 10.1312 3.71414 10.3947 3.55967 10.6552C3.35448 11.0004 2.74418 11.0027 2.5405 10.6597C2.38755 10.4007 1.76211 10.141 1.47286 10.2152C1.06246 10.3212 0.596794 9.86466 0.7028 9.46107C0.778519 9.17031 0.521075 8.54185 0.265902 8.39419C-0.0839193 8.19278 -0.0899768 7.58173 0.256059 7.3735C0.540005 7.20238 0.786091 6.5989 0.703557 6.27482C0.60588 5.8879 1.07004 5.4351 1.46529 5.53278C1.75454 5.60395 2.37392 5.34121 2.52838 5.08149C2.73055 4.74076 3.35751 4.74 3.5627 5.08073C3.74594 5.38437 4.32746 5.61985 4.6894 5.53732C4.94306 5.47902 5.45416 5.87124 5.44205 6.14307ZM3.02737 6.66023C2.36634 6.66856 1.83025 7.21449 1.83328 7.87628C1.83631 8.53655 2.37922 9.07869 3.03949 9.08021C3.71566 9.08172 4.26538 8.5214 4.2525 7.84523C4.24039 7.18496 3.6884 6.6519 3.02737 6.66023Z" fill="white"/>
<path d="M6.75879 4.23344C7.26308 4.15621 7.73026 4.06307 8.20199 4.02067C8.48139 3.99568 8.62375 3.87453 8.73278 3.63072C8.92662 3.19912 9.15151 2.78115 9.40365 2.27611C9.64368 2.77661 9.86175 3.19458 10.045 3.62845C10.151 3.87832 10.2918 3.99417 10.5712 4.01916C11.0407 4.0608 11.5056 4.15469 11.9895 4.22966C11.623 4.61885 11.2739 4.95959 10.9642 5.33364C10.8552 5.46615 10.7832 5.68649 10.8014 5.85534C10.8537 6.33919 10.9604 6.81773 11.0664 7.40985C10.6167 7.17588 10.2305 7.0093 9.88219 6.78441C9.54373 6.56634 9.26054 6.55726 8.91829 6.77911C8.5662 7.00778 8.17549 7.17664 7.72496 7.41136C7.82567 6.82303 7.89457 6.32707 8.00209 5.8402C8.0498 5.62213 7.98922 5.49189 7.84081 5.34651C7.48342 4.99593 7.14268 4.63021 6.75879 4.23344Z" fill="white"/>
<path d="M9.41725 9.08173C10.4228 9.08779 11.2353 9.92145 11.2201 10.9308C11.2057 11.9189 10.3827 12.7208 9.38999 12.7147C8.38596 12.7087 7.57198 11.8735 7.58712 10.8649C7.60151 9.87829 8.42457 9.07567 9.41725 9.08173Z" fill="white"/>
<path d="M3.42176 14.5774C3.49218 14.6425 3.60879 14.7016 3.63605 14.7887C3.66406 14.8788 3.63681 15.0196 3.5785 15.0953C3.50581 15.1892 3.37709 15.2399 3.27033 15.3066C2.17089 15.9896 2.16483 16.7013 3.25367 17.3843C3.31727 17.4244 3.38466 17.4593 3.44978 17.4979C3.63605 17.6077 3.75871 17.7811 3.605 17.956C3.52701 18.0446 3.30591 18.0196 3.14993 18.0196C3.08406 18.0196 3.01591 17.9552 2.95306 17.9136C2.35791 17.5229 1.79381 17.0822 1.84227 16.2834C1.89376 15.452 2.52298 15.0378 3.17189 14.6675C3.23625 14.6304 3.31197 14.616 3.42176 14.5774Z" fill="white"/>
<path d="M16.6718 16.4552C16.6536 16.8952 16.3712 17.2874 15.9752 17.6054C15.7602 17.778 15.527 17.9386 15.2778 18.0521C15.1786 18.0976 15.0151 17.9999 14.8803 17.9673C14.9167 17.825 14.9098 17.6387 14.9992 17.5494C15.1658 17.3835 15.3997 17.2897 15.5853 17.1405C16.2289 16.6211 16.2236 16.0683 15.5701 15.5489C15.3838 15.4005 15.1559 15.3013 14.9803 15.143C14.8985 15.0688 14.8372 14.8841 14.8735 14.7917C14.9083 14.7031 15.0901 14.6069 15.193 14.6206C15.8351 14.7016 16.6771 15.7109 16.6718 16.4552Z" fill="white"/>
<path d="M9.70504 0.740531C9.70504 0.891212 9.74517 1.05779 9.69368 1.18727C9.64371 1.31297 9.49908 1.40004 9.39611 1.50453C9.29767 1.3955 9.1326 1.29631 9.11443 1.17591C9.07279 0.893483 9.07203 0.595908 9.11519 0.314233C9.13336 0.196869 9.30676 0.103735 9.40973 0C9.50817 0.109035 9.64143 0.202927 9.69444 0.330892C9.74365 0.449013 9.7058 0.602722 9.70504 0.740531Z" fill="white"/>
<path d="M7.66579 2.04593C7.66579 2.29959 7.4038 2.4586 7.21451 2.30413C6.94495 2.08379 6.70265 1.82559 6.47852 1.5583C6.42779 1.49772 6.4664 1.30767 6.52774 1.22514C6.57771 1.1585 6.77382 1.10853 6.81925 1.14866C7.1085 1.40156 7.37579 1.68021 7.6461 1.95431C7.66806 1.97551 7.662 2.02473 7.66579 2.04593Z" fill="white"/>
<path d="M12.4045 1.40307C12.3469 1.50908 12.3197 1.59616 12.2636 1.65597C12.0751 1.85663 11.8956 2.0747 11.6738 2.23068C11.567 2.30564 11.3724 2.25567 11.2172 2.26248C11.2263 2.11634 11.1816 1.93083 11.255 1.83316C11.4254 1.60524 11.642 1.4061 11.8631 1.22362C11.9426 1.15774 12.0993 1.13503 12.2015 1.16304C12.2833 1.18652 12.3356 1.316 12.4045 1.40307Z" fill="white"/>
<path d="M15.4399 6.9457C15.4399 7.13651 15.4399 7.32656 15.4399 7.64988C15.3089 7.45907 15.1824 7.35609 15.1779 7.24781C15.1733 7.13727 15.2877 7.02142 15.3497 6.90784C15.38 6.91995 15.4096 6.93282 15.4399 6.9457Z" fill="white"/>
<path d="M16.0889 8.19354C16.4622 8.43584 16.4606 8.59485 16.0889 8.80611C16.0889 8.60394 16.0889 8.41464 16.0889 8.19354Z" fill="white"/>
</svg>
