<svg width="17" height="17" viewBox="0 0 17 17" fill="none" xmlns="http://www.w3.org/2000/svg">
<path d="M11.0203 2.00464C9.38732 2.00464 7.80252 2.01152 6.21772 2.00088C5.688 1.99712 5.23529 2.12987 4.86836 2.52998C4.80574 2.59886 4.66862 2.62516 4.5653 2.62704C3.92913 2.6358 3.29233 2.63267 2.65615 2.63017C2.4683 2.62954 2.26981 2.63831 2.26543 2.87812C2.26105 3.12045 2.45891 3.13359 2.64801 3.13297C3.27229 3.12984 3.89657 3.13109 4.51709 3.13109C4.51709 3.38343 4.51709 3.60885 4.51709 3.88248C4.04559 3.88248 3.591 3.88248 3.13704 3.88248C2.94919 3.88248 2.76135 3.8831 2.5735 3.88248C2.39191 3.88185 2.236 3.96012 2.2742 4.14671C2.29361 4.24189 2.46705 4.36837 2.57538 4.37276C3.13704 4.3953 3.7012 4.3834 4.26412 4.3834C4.33487 4.3834 4.405 4.3834 4.49204 4.3834C4.49204 4.63574 4.49204 4.86178 4.49204 5.13479C4.04309 5.13479 3.58912 5.13479 3.13453 5.13479C2.94669 5.13479 2.75258 5.10661 2.5735 5.14543C2.45766 5.17048 2.29298 5.28006 2.2742 5.37586C2.23663 5.56558 2.39692 5.63634 2.57663 5.63571C3.14017 5.63509 3.70308 5.63571 4.26662 5.63571C4.33738 5.63571 4.40813 5.63571 4.49329 5.63571C4.49329 5.88993 4.49329 6.11535 4.49329 6.3871C3.99988 6.3871 3.50397 6.3871 3.00805 6.3871C2.85151 6.3871 2.68683 6.35829 2.54156 6.39774C2.43449 6.42717 2.35309 6.54739 2.25979 6.62692C2.3556 6.71333 2.44827 6.87049 2.54845 6.8755C3.07943 6.90055 3.61166 6.88802 4.1439 6.88802C4.25598 6.88802 4.36869 6.88802 4.49392 6.88802C4.49392 7.14349 4.49392 7.36891 4.49392 7.63941C3.95668 7.63941 3.41881 7.63941 2.88094 7.63941C2.76635 7.63941 2.63862 7.60935 2.54031 7.6488C2.43324 7.69201 2.35247 7.80096 2.25979 7.88111C2.35622 7.96689 2.45015 8.1228 2.55033 8.12781C3.08131 8.15286 3.61354 8.14033 4.14578 8.14033C4.24972 8.14033 4.35366 8.14033 4.48327 8.14033C4.48327 8.38203 4.48327 8.61496 4.48327 8.89172C3.92349 8.89172 3.35369 8.88734 2.78451 8.89423C2.57913 8.89673 2.27921 8.81282 2.27107 9.13592C2.26293 9.46653 2.56473 9.38826 2.77011 9.39014C3.33303 9.3964 3.89594 9.39264 4.48327 9.39264C4.48327 9.63622 4.48327 9.86915 4.48327 10.144C3.96294 10.144 3.43509 10.144 2.90724 10.144C2.81332 10.144 2.71939 10.1465 2.62547 10.1434C2.44263 10.1371 2.26919 10.1722 2.26418 10.3901C2.25917 10.6105 2.43074 10.6462 2.61483 10.6456C3.23034 10.6437 3.84522 10.645 4.50832 10.645C4.50832 10.7664 4.50832 10.876 4.50832 10.9856C4.50832 12.2273 4.51521 13.4683 4.50456 14.71C4.50081 15.1677 4.53837 15.6047 4.87712 16.0099C4.74313 16.0186 4.65672 16.0293 4.56968 16.0293C3.42194 16.0305 2.27482 16.0311 1.12708 16.0293C0.402618 16.028 0 15.6292 0 14.9097C0 10.3093 0 5.70897 0.000626155 1.10798C0.000626155 0.409193 0.409506 0.00156539 1.10892 0.000939233C4.04058 -0.000313078 6.97161 -0.000313078 9.90327 0.000939233C10.6227 0.00156539 11.0172 0.402931 11.0203 1.13052C11.0216 1.41042 11.0203 1.69031 11.0203 2.00464Z" fill="white"/>
<path d="M5.0091 9.26868C5.0091 7.40149 5.00848 5.53429 5.00973 3.6671C5.01035 2.90006 5.3992 2.5062 6.1581 2.50558C9.07911 2.50433 11.9995 2.50433 14.9205 2.50558C15.6199 2.50558 16.0288 2.91258 16.0288 3.61199C16.0307 6.78347 16.0338 9.95432 16.0188 13.1258C16.0175 13.3293 15.9117 13.5779 15.7708 13.7263C15.1034 14.4301 14.4165 15.1157 13.7139 15.7845C13.5724 15.9191 13.3338 16.0186 13.1391 16.0199C10.7923 16.0355 8.44482 16.0318 6.09799 16.0293C5.42111 16.0287 5.01098 15.6135 5.01035 14.9335C5.00785 13.045 5.0091 11.1572 5.0091 9.26868ZM15.5285 12.7739C15.5285 12.6449 15.5285 12.5623 15.5285 12.4796C15.5285 9.54857 15.5291 6.61691 15.5279 3.68588C15.5279 3.16054 15.3682 3.00588 14.8304 3.00588C11.9519 3.00588 9.07285 3.00588 6.19379 3.0065C5.66594 3.0065 5.51065 3.16429 5.51065 3.70028C5.51003 7.41338 5.51003 11.1271 5.51065 14.8408C5.51065 15.3724 5.66782 15.529 6.20005 15.529C8.2864 15.5296 10.3727 15.5296 12.4591 15.5284C12.5593 15.5284 12.6588 15.5196 12.7741 15.514C12.7741 14.9435 12.7716 14.4025 12.7747 13.8609C12.7784 13.1859 13.1911 12.777 13.8717 12.7739C14.4115 12.7726 14.9518 12.7739 15.5285 12.7739ZM13.2775 15.4288C14.0001 14.7075 14.7095 13.9993 15.4283 13.2817C14.8629 13.2817 14.2843 13.2654 13.707 13.2892C13.4516 13.2999 13.2875 13.4902 13.2812 13.7501C13.2681 14.3105 13.2775 14.8709 13.2775 15.4288Z" fill="white"/>
</svg>
