<svg width="20" height="20" viewBox="0 0 20 20" fill="none" xmlns="http://www.w3.org/2000/svg">
<path d="M3.95636 19.451C2.99448 19.451 2.03261 19.454 1.07073 19.4502C0.425685 19.448 0.0351608 19.0597 0.00401003 18.4223C-0.0461351 17.392 0.373261 16.6664 1.30474 16.1847C3.20874 15.2001 5.06639 15.2608 6.90808 16.3276C7.70205 16.7872 8.11613 17.6876 7.9505 18.5902C7.85021 19.1357 7.48323 19.4472 6.91796 19.4495C5.93101 19.454 4.94331 19.451 3.95636 19.451ZM0.943092 18.5271C2.99296 18.5271 5.01928 18.5271 7.04105 18.5271C7.13982 17.7066 6.95215 17.3548 6.27215 16.9863C4.72449 16.1475 3.18747 16.1627 1.64968 17.0121C1.00767 17.3669 0.809371 17.7681 0.943092 18.5271Z" fill="white"/>
<path d="M15.5058 19.451C14.531 19.451 13.5569 19.4533 12.5821 19.4503C11.9158 19.448 11.5192 19.0689 11.4941 18.4018C11.4577 17.4308 11.8269 16.7067 12.7159 16.2296C14.6465 15.194 16.5383 15.2426 18.4187 16.3359C19.2104 16.7964 19.6306 17.7544 19.4353 18.6472C19.3267 19.1448 18.9574 19.4457 18.4286 19.4487C17.4546 19.4548 16.4806 19.451 15.5058 19.451ZM12.4211 18.5332C14.4694 18.5332 16.4957 18.5332 18.5175 18.5332C18.6527 17.7696 18.4537 17.3662 17.8124 17.0121C16.2747 16.1635 14.7376 16.1483 13.19 16.9871C12.5092 17.3563 12.3215 17.7066 12.4211 18.5332Z" fill="white"/>
<path d="M9.73892 8.83619C8.7778 8.83619 7.81593 8.83923 6.85481 8.83543C6.12999 8.83239 5.77973 8.46694 5.75618 7.73376C5.72351 6.74605 6.13911 6.05921 7.02272 5.59271C8.93432 4.58297 10.7996 4.64907 12.6572 5.71579C13.6123 6.26359 13.8128 7.19128 13.6685 8.09465C13.5955 8.55127 13.205 8.83011 12.6998 8.83391C11.7128 8.84151 10.7259 8.83619 9.73892 8.83619ZM9.7298 7.96321C10.6537 7.96321 11.5776 7.95637 12.5015 7.96777C12.7469 7.97081 12.8418 7.89255 12.835 7.64258C12.8198 7.1077 12.6245 6.70958 12.1337 6.4353C10.5131 5.53041 8.91152 5.54105 7.29928 6.45353C6.83886 6.71414 6.65651 7.09858 6.6284 7.60155C6.61245 7.88495 6.71426 7.97384 6.99689 7.96929C7.9071 7.95333 8.81807 7.96321 9.7298 7.96321Z" fill="white"/>
<path d="M9.71539 4.41509C8.50279 4.40977 7.5242 3.42662 7.52344 2.21402C7.52268 0.988502 8.52178 -0.00680295 9.74578 3.50241e-05C10.9675 0.006873 11.9506 1.01357 11.9377 2.24441C11.9248 3.45321 10.9348 4.42041 9.71539 4.41509ZM11.048 2.19275C11.0389 1.44969 10.4516 0.882894 9.70323 0.89505C8.97841 0.906447 8.41313 1.48236 8.41389 2.20946C8.41389 2.94796 9.005 3.53831 9.7397 3.53223C10.4759 3.52691 11.0572 2.93201 11.048 2.19275Z" fill="white"/>
<path d="M3.99446 10.6164C5.21238 10.6217 6.18565 11.5949 6.19021 12.8121C6.19477 14.0376 5.19186 15.0428 3.97394 15.0352C2.77578 15.0276 1.77592 14.027 1.76908 12.8296C1.76224 11.6117 2.76894 10.611 3.99446 10.6164ZM3.98914 14.1379C4.71776 14.1356 5.31647 13.5377 5.31267 12.8144C5.30887 12.0956 4.69725 11.4878 3.98002 11.4909C3.2552 11.4939 2.66257 12.0949 2.66409 12.8235C2.66485 13.5559 3.25368 14.1402 3.98914 14.1379Z" fill="white"/>
<path d="M15.4943 10.6163C16.7046 10.6239 17.6908 11.6109 17.6931 12.8174C17.6961 14.0277 16.6735 15.0443 15.4624 15.0352C14.2566 15.0261 13.2743 14.0338 13.272 12.8243C13.2697 11.5919 14.2604 10.6087 15.4943 10.6163ZM16.7981 12.8167C16.7958 12.088 16.1979 11.4886 15.4746 11.4908C14.7558 11.4931 14.148 12.1032 14.1495 12.822C14.1503 13.5453 14.7513 14.1394 15.4806 14.1379C16.2138 14.1364 16.8004 13.5483 16.7981 12.8167Z" fill="white"/>
<path d="M9.28323 11.3229C9.28323 10.9689 9.28171 10.6141 9.28399 10.26C9.28627 9.95307 9.41467 9.72818 9.74593 9.73502C10.0567 9.74185 10.1767 9.96295 10.1782 10.2517C10.1805 10.9347 10.163 11.6193 10.1904 12.3015C10.1972 12.4725 10.3013 12.6867 10.4312 12.7984C10.9874 13.2763 11.5785 13.7132 12.1362 14.1903C12.2608 14.2967 12.3596 14.5072 12.3558 14.6667C12.3527 14.7837 12.1727 14.9752 12.0526 14.9911C11.8915 15.0117 11.6849 14.9334 11.5474 14.8308C11.0117 14.4281 10.489 14.0065 9.97538 13.5764C9.79684 13.4268 9.67603 13.4169 9.49141 13.5719C8.96868 14.0118 8.43076 14.4335 7.89436 14.8567C7.59653 15.0914 7.33137 15.0876 7.16801 14.8453C6.97655 14.5611 7.10647 14.3499 7.342 14.1637C7.88752 13.7322 8.42316 13.287 8.97628 12.8653C9.19661 12.6974 9.3159 12.5249 9.28855 12.2347C9.26043 11.9323 9.28247 11.6269 9.28323 11.3229Z" fill="white"/>
</svg>
