<svg width="18" height="18" viewBox="0 0 18 18" fill="none" xmlns="http://www.w3.org/2000/svg">
<path d="M13.6273 8.87247C13.631 11.4816 11.5119 13.6125 8.90795 13.6185C6.28108 13.6251 4.14939 11.4971 4.15235 8.87173C4.15605 6.26484 6.28108 4.14425 8.89019 4.14425C11.4986 4.14499 13.6236 6.26632 13.6273 8.87247ZM8.00198 7.68449C8.00938 7.22114 8.37799 6.83848 8.8406 6.81331C9.31505 6.7874 9.70142 7.11382 9.76877 7.62676C9.79912 7.85547 9.87536 8.05088 10.1181 7.97168C10.2321 7.93467 10.3542 7.69856 10.3483 7.55792C10.3298 7.1338 10.1418 6.74447 9.77247 6.535C9.38018 6.31295 9.05747 6.11237 9.16257 5.5824C9.17515 5.51875 8.98419 5.34111 8.90351 5.35073C8.79323 5.36405 8.66444 5.48914 8.60744 5.59869C8.55711 5.69713 8.5808 5.84146 8.59486 5.96285C8.61855 6.1664 8.54009 6.25596 8.34468 6.33516C7.67705 6.60606 7.30992 7.27148 7.42613 7.93467C7.549 8.63265 8.10561 9.12265 8.83764 9.17594C9.41201 9.21813 9.77247 9.56009 9.77469 10.0641C9.77617 10.5282 9.41571 10.9183 8.95458 10.9524C8.46311 10.9879 8.09006 10.6718 8.00568 10.1234C7.97238 9.90723 7.87689 9.73033 7.6652 9.80361C7.54826 9.84432 7.42169 10.076 7.42909 10.2151C7.45203 10.6526 7.67038 11.0093 8.03233 11.2677C8.28695 11.4497 8.52232 11.8568 8.60596 12.15C8.63779 12.261 8.78878 12.4098 8.88501 12.4098C8.98271 12.4098 9.09818 12.2588 9.17145 12.1507C9.21216 12.0907 9.18922 11.9819 9.18108 11.8968C9.15887 11.6563 9.20698 11.5082 9.48011 11.4039C10.0197 11.1981 10.3106 10.7532 10.3579 10.1811C10.4046 9.60598 10.1751 9.12857 9.68069 8.8362C9.43792 8.69261 9.13148 8.63265 8.84578 8.5912C8.34838 8.52089 7.99458 8.16486 8.00198 7.68449Z" fill="#7EDCBE"/>
<path d="M16.0694 14.1921C16.3714 14.4845 16.6919 14.7746 16.985 15.0907C17.0798 15.1928 17.176 15.3897 17.1368 15.4918C17.0983 15.5925 16.8903 15.682 16.7548 15.6843C15.7556 15.6998 14.7564 15.6872 13.7579 15.6961C13.4344 15.6991 13.3249 15.5503 13.3271 15.2431C13.3352 14.2565 13.3234 13.2691 13.3382 12.2832C13.3404 12.1455 13.4174 11.9397 13.5195 11.8924C13.6158 11.848 13.8223 11.9353 13.9222 12.0278C14.2012 12.2847 14.4507 12.5741 14.7408 12.882C15.313 12.0685 15.6616 11.2358 15.8407 10.3373C16.7593 5.73191 13.2324 1.58695 8.53967 1.80382C7.75508 1.84009 6.97568 2.10433 6.20664 2.31232C5.747 2.43667 5.71295 2.46257 5.49386 2.02513C5.38357 1.8053 5.27477 1.58399 5.1667 1.36268C4.97574 0.971868 5.00534 0.886008 5.39616 0.715768C6.34358 0.302012 7.33689 0.0688579 8.36573 0.013345C12.9814 -0.234613 16.9776 2.99846 17.6741 7.57346C18.0168 9.82359 17.5194 11.9087 16.2708 13.8124C16.2101 13.9049 16.1479 13.9967 16.0872 14.0899C16.0813 14.0973 16.0828 14.1114 16.0694 14.1921Z" fill="#7EDCBE"/>
<path d="M1.74026 3.60095C1.39756 3.26862 1.06966 2.96885 0.766932 2.64539C0.680332 2.55287 0.602614 2.36635 0.640362 2.26938C0.678111 2.17316 0.865375 2.08212 0.988243 2.0799C2.0119 2.0651 3.03556 2.07398 4.05996 2.07028C4.3464 2.06954 4.45225 2.21239 4.45077 2.48477C4.44633 3.49659 4.45521 4.50766 4.44115 5.51948C4.43967 5.64457 4.35603 5.83035 4.2598 5.87402C4.16728 5.91547 3.97484 5.84441 3.88306 5.76078C3.59365 5.49579 3.33089 5.20195 3.03038 4.88959C2.46341 5.69268 2.11701 6.52685 1.93788 7.42542C1.02747 12.0034 4.49888 16.1306 9.16418 15.9618C9.97245 15.933 10.7778 15.6613 11.5712 15.4504C12.0324 15.3282 12.0627 15.2986 12.284 15.7376C12.395 15.9574 12.5046 16.178 12.6126 16.4C12.8036 16.7908 12.774 16.8767 12.3832 17.0477C11.4247 17.4673 10.418 17.702 9.37587 17.753C4.77422 17.9803 0.789877 14.742 0.104478 10.19C-0.234521 7.94058 0.256213 5.85404 1.5071 3.95031C1.57372 3.84891 1.64256 3.74825 1.74026 3.60095Z" fill="#7EDCBE"/>
</svg>
